<?xml version="1.0" encoding="UTF-8"?>
<svg version="1.1" viewBox="0 0 872.38026 844.62526" xmlns="http://www.w3.org/2000/svg">
 <g transform="translate(114.74 456.84)">
  <path d="m272.7 267.12c8.4099 0.0823 16.468 2.5612 24.875 7.75 0 0 8.2875 6.2812 26.562 6.2812v1.25c14.675-1.0416 21.094-6.0938 21.094-6.0938 19.22-11.86 36.831-9.5175 61.031 3.0625 13.8 7.18 35.666 5.2988 51.156-2.7812 21.35-11.13 33.464-8.4188 55.844 1.5312 17.33 7.71 32.98 7.7 50.25 0 22.36-9.98 33.869-12.661 55.219-1.5312 15.5 8.08 37.733 9.9612 51.531 2.7812 24.197-12.58 41.473-14.922 60.688-3.0625 0 0 8.2875 6.2812 26.563 6.2812v44.531c-11.525 0-20.5-2.25-28.25-7-9.836-6.03-28.205-12.318-50.031-1.1875-21.828 11.14-40.334 11.149-58.844 1.4688-18.5-9.68-28.729-11.449-51.219-1.7188-21.82 11.14-43.406 10.118-61.906 0.4375-22.49-9.73-33-8.3988-51.5 1.2812s-36.992 9.6712-58.812-1.4688c-21.82-11.13-39.588-4.7825-49.438 1.1875-8.25 5-16.525 7-28.875 7v-1.625c-8.9562-0.62574-16.31-2.8464-22.781-6.8125-9.836-6.03-28.174-12.318-50-1.1875-21.828 11.14-40.334 11.149-58.844 1.4688-18.5-9.68-28.76-11.449-51.25-1.7188-21.82 11.14-43.406 10.118-61.906 0.4375-22.49-9.73-32.969-8.3988-51.469 1.2812s-37.024 9.6712-58.844-1.4688c-21.82-11.13-39.588-4.7825-49.438 1.1875-8.25 5-16.494 7-28.844 7v-44.531c18.6 0.03 26.562-6.2812 26.562-6.2812 19.22-11.86 36.831-9.5175 61.031 3.0625 13.8 7.18 35.698 5.2988 51.188-2.7812 21.35-11.13 33.432-8.4188 55.812 1.5312 17.33 7.71 32.98 7.7 50.25 0 22.36-9.98 33.9-12.661 55.25-1.5312 15.5 8.08 37.702 9.9612 51.5 2.7812 13.611-7.0762 25.031-10.918 35.844-10.812z"/>
  <path d="m272.83 327.42c8.4099 0.0823 16.468 2.5612 24.875 7.75 0 0 8.2875 6.2812 26.562 6.2812v1.25c14.675-1.0416 21.094-6.0938 21.094-6.0938 19.22-11.86 36.831-9.5175 61.031 3.0625 13.8 7.18 35.666 5.2988 51.156-2.7812 21.35-11.13 33.464-8.4188 55.844 1.5312 17.33 7.71 32.98 7.7 50.25 0 22.36-9.98 33.869-12.661 55.219-1.5312 15.5 8.08 37.733 9.9612 51.531 2.7812 24.197-12.58 41.472-14.922 60.688-3.0625 0 0 8.2875 6.2812 26.562 6.2812v44.531c-11.525 0-20.5-2.25-28.25-7-9.836-6.03-28.205-12.318-50.031-1.1875-21.828 11.14-40.334 11.149-58.844 1.4688-18.5-9.68-28.729-11.449-51.219-1.7188-21.82 11.14-43.406 10.118-61.906 0.4375-22.49-9.73-33-8.3988-51.5 1.2812s-36.992 9.6712-58.812-1.4688c-21.82-11.13-39.588-4.7825-49.438 1.1875-8.25 5-16.525 7-28.875 7v-1.625c-8.9562-0.62574-16.31-2.8464-22.781-6.8125-9.836-6.03-28.174-12.318-50-1.1875-21.828 11.14-40.334 11.149-58.844 1.4688-18.5-9.68-28.76-11.449-51.25-1.7188-21.82 11.14-43.406 10.118-61.906 0.4375-22.49-9.73-32.969-8.3988-51.469 1.2812s-37.024 9.6712-58.844-1.4688c-21.82-11.13-39.588-4.7825-49.438 1.1875-8.25 5-16.494 7-28.844 7v-44.531c18.6 0.03 26.562-6.2812 26.562-6.2812 19.22-11.86 36.831-9.5175 61.031 3.0625 13.8 7.18 35.698 5.2988 51.188-2.7812 21.35-11.13 33.432-8.4188 55.812 1.5312 17.33 7.71 32.98 7.7 50.25 0 22.36-9.98 33.9-12.661 55.25-1.5312 15.5 8.08 37.702 9.9612 51.5 2.7812 13.611-7.0762 25.031-10.918 35.844-10.812z"/>
  <g transform="matrix(.97379 0 0 .96979 -114.32 -178.95)">
   <path d="m250.51 449.13c22.49-9.73 32.98-8.41 51.48 1.27s37.01 9.68 58.83-1.46c21.82-11.13 39.59-4.78 49.44 1.19 8.25 5 16.5 7 28.85 7v-44.53c-18.6 0.03-26.57-6.29-26.57-6.29-19.22-11.86-36.83-9.51-61.03 3.07-13.8 7.18-35.69 5.29-51.18-2.79-21.35-11.13-33.44-8.41-55.82 1.54-17.33 7.71-32.98 7.7-50.25 0-22.36-9.98-33.89-12.67-55.24-1.54-15.5 8.08-37.71 9.97-51.508 2.79-24.197-12.58-41.49-14.93-60.705-3.07 0 0-8.295 6.29-26.57 6.29v44.53c11.525 0 20.525-2.25 28.275-7 9.836-6.03 28.184-12.32 50.01-1.19 21.828 11.14 40.328 11.14 58.838 1.46 18.5-9.68 28.75-11.43 51.24-1.7 21.82 11.14 43.41 10.11 61.91 0.43z"/>
   <path d="m250.01 383.13c17.75-9 33.71-8.49 52.22 1.2 18.5 9.68 37 9.68 58.83-1.46 21.82-11.13 40.14-5.5 50.29-0.04 8.91 4.8 15.16 7.3 27.99 8.23v-43.43c-16.33-0.39-26.56-6.29-26.56-6.29-37.77-20.6-54.2 4.48-74.5 4.48v-100.41l31.32-72.13c4.74-11.13 0-21.29-11.39-26.13l-18.98-7.75v-62.437h-36.55v-32.898h-51.22v-44.065h-63.57v44.065h-51.22v32.898h-36.56v62.437l-18.977 7.75c-11.388 4.84-16.133 15-11.388 26.13l31.315 72.13v100.41h0.01c-20.297 0-37.558-24.69-74.489-4.09h-0.012s-10.557 5.9-26.569 6.29v43.04c12.512-0.93 18.512-2.93 27.992-8.23 10.067-5.63 28.469-11.09 50.293 0.04 21.825 11.14 40.325 11.14 58.835 1.46 18.5-9.69 34.63-10.17 51.95-1.46 21.83 11.14 38.94 11.26 60.94 0.26z"/>
   <path d="m219.67 70.187h-55.98v32.413h-36.53v25.19l92.51-38.159 92.52 38.159v-25.19h-36.53v-32.413h-55.99z" fill="#fff"/>
  </g>
  <path d="m322.46 58.994v207.53c14.22-1.1406 20.469-6.0312 20.469-6.0312 19.22-11.86 36.831-9.5175 61.031 3.0625 13.8 7.18 35.666 5.2988 51.156-2.7812 21.35-11.13 33.464-8.4188 55.844 1.5312 17.33 7.71 32.98 7.7 50.25 0 22.36-9.98 33.869-12.661 55.219-1.5312 15.5 8.08 37.733 9.9612 51.531 2.7812 24.197-12.58 41.473-14.922 60.688-3.0625 0 0 8.2875 6.2812 26.562 6.2812v22.562h0.2813v-230.34h-433.03z" stroke="#fff" stroke-linecap="round"/>
  <g transform="matrix(.7008 0 0 .75726 127.49 -526.83)">
   <path d="m277.06 133.41-7.125 7.6562v5.6875l-55.5 51.531-37.25 213.97-3.75 9.5-35.031 25.812 1.8438 7.375 36.87-19.82 91.1-208.28 81.78 249.78 28 78.844 39.906 94.781-24 0.96875 2.1875 29.625 27.438 2.2188 4.375 15.344h12.094v19.75l-5.5 2.1875-1.0938 133.84h64.719l-8-129.97 47.5-1.6875v-57.031l-14.438-0.96875-1.8125 8.5-39.5-0.375 64.781-160.69 8.9375-1.625 6.25 15.812-4.85 3.83 6.72 27.03 28.5-16.719-8.5-26-10.344 4.5312-6.5-33-19.844-49.406-7.1875 1.5938 0.71875 4.0312-18.219 11.719-222.25-295.12-12.062-13.719-4.5-10.812-6.4688-0.6875zm7.125 15.469 13.531 22.469 216.69 287.5-116.69 74.969-125.16-321.69 8.2188-56.562 3.4062-6.6875zm-15.9 6.96-10.9 53.04-0.57 1.21-33.43-10.09 44.9-44.16zm-48.25 49.125 34.781 10.594-72.531 183.78 37.75-194.38zm321.28 241.38 7.25 41.125-2.75 0.90625-15.75-24.375-5.25-6.9688 16.5-10.688zm-24.406 15.812 5.6562 7.5 17.594 20.625-7.875 2.6562-3.5625 8.6875-14.312 0.78125-1.1875-7.2812-29.094 2.9062 0.125 18.375-74.844 15.469 107.5-69.719zm-32.625 60.094 0.125 19.938 21.781 1.125-57.43 105.73-14.53 0.59-24.28-84.37-10.03-25.75 84.375-17.25z" stroke="#000" stroke-width=".38399px"/>
  </g>
  <g transform="matrix(.80729 0 0 .83072 181.95 -567.51)">
   <path d="m277.06 133.41-7.125 7.6562v5.6875l-55.5 51.531-37.25 213.97-3.75 9.5-35.031 25.812 1.8438 7.375 36.87-19.82 91.1-208.28 81.78 249.78 28 78.844 39.906 94.781-24 0.96875 2.1875 29.625 27.438 2.2188 4.375 15.344h12.094v19.75l-5.5 2.1875-1.0938 133.84h64.719l-8-129.97 47.5-1.6875v-57.031l-14.438-0.96875-1.8125 8.5-39.5-0.375 64.781-160.69 8.9375-1.625 6.25 15.812-4.85 3.83 6.72 27.03 28.5-16.719-8.5-26-10.344 4.5312-6.5-33-19.844-49.406-7.1875 1.5938 0.71875 4.0312-18.219 11.719-222.25-295.12-12.062-13.719-4.5-10.812-6.4688-0.6875zm7.125 15.469 13.531 22.469 216.69 287.5-116.69 74.969-125.16-321.69 8.2188-56.562 3.4062-6.6875zm-15.9 6.96-10.9 53.04-0.57 1.21-33.43-10.09 44.9-44.16zm-48.25 49.125 34.781 10.594-72.531 183.78 37.75-194.38zm321.28 241.38 7.25 41.125-2.75 0.90625-15.75-24.375-5.25-6.9688 16.5-10.688zm-24.406 15.812 5.6562 7.5 17.594 20.625-7.875 2.6562-3.5625 8.6875-14.312 0.78125-1.1875-7.2812-29.094 2.9062 0.125 18.375-74.844 15.469 107.5-69.719zm-32.625 60.094 0.125 19.938 21.781 1.125-57.43 105.73-14.53 0.59-24.28-84.37-10.03-25.75 84.375-17.25z" stroke="#000" stroke-width=".38399px"/>
  </g>
 </g>
</svg>
