<?xml version="1.0" encoding="utf-8"?>
<!-- Generator: Adobe Illustrator 25.2.3, SVG Export Plug-In . SVG Version: 6.00 Build 0)  -->
<svg version="1.1" id="Ebene_1" xmlns="http://www.w3.org/2000/svg" xmlns:xlink="http://www.w3.org/1999/xlink" x="0px" y="0px"
	 viewBox="0 0 1415.8 597.7" style="enable-background:new 0 0 1415.8 597.7;" xml:space="preserve">
<style type="text/css">
	.st0{fill-rule:evenodd;clip-rule:evenodd;fill:#0C052D;}
	.st1{fill-rule:evenodd;clip-rule:evenodd;fill:#FFFFFF;}
</style>
<path class="st0" d="M1016.4,171.2c-20.2-9.3-181-55.5-233.6-42.2c-80.9,11.8-662.5,251.5-663.2,251.5c-1.2-3.7,7.6-19.1,8.4-21.1
	c0.2-13.4,550.8-225,580.1-237.5c22.8-9.7,43.4-18.8,76.7-18.2C872.4,96.7,993.4,144.3,1016.4,171.2z"/>
<path class="st0" d="M817.8,145c181.4,12.9,246.8,62.4,246.8,63.1c-19.2-4.3-159.8-49.3-250.4-39.9
	c-47.6,4.9-725.1,240.5-731.1,244.9c-0.7,0,1.3-5.6,3.5-7.7c45.9-24.3,582.1-228.1,700.3-257.7C797,145.2,807.4,144.3,817.8,145z"/>
<path class="st0" d="M1076.9,230.2c-4.3,2.6-172.1-24.5-232.1-17.8c-70.4,7.4-778,222.8-779.5,222.8c0-0.4,2.4-7.5,4.9-9.5
	c6.7-1.8,182.6-56.2,234.3-73.6c162.2-54.5,325.9-111.4,490.8-157.6C873.7,172.5,1060,216.9,1076.9,230.2z"/>
<path class="st0" d="M1139,561.8c-256.1,0-1026.4,2.1-1050.9-8.4c-24-10.4-57.3-46.1-62-86.2c54.3-11.8,683.1-130.3,695.7-132.4
	c17.3-4.9,42.1-25.8,57.3-33.2c44.8-21.7,433.4-48.2,562.2-50.3c1.5,0,2.9,0.3,4.2,1c4.4,2.2,6.2,7.7,4,12.1
	C1214.1,535,1176.3,566.3,1139,561.8z"/>
<path class="st0" d="M1087.2,248.1c-0.4,0.7-203.5,5.4-227.8,11.5C784.1,278.8,51.6,452,52.5,452c0.8-2.7,2.2-5.2,4-7.4
	c10.8-1.4,767.5-203.3,782.1-206.2C892.7,227.7,1081.5,240.7,1087.2,248.1z"/>
<polyline class="st0" points="632.9,137 619.9,97.1 595.5,104.9 600.9,89 614.7,84.3 606,56.3 623.6,51.4 652.4,72.1 667.1,69 
	685.4,78.9 665.4,84.6 701.8,110.4 "/>
<polygon class="st0" points="234.1,197 194.6,213.7 202.1,272.9 317.1,223.8 "/>
<path class="st0" d="M388.1,230.1c-9-1.4-30.3-0.6-34.7,0c-26.3,3.5-159.2,57.3-172.5,66.4c-10,7-15.1,24.6-15.1,24.6
	S397.1,231.5,388.1,230.1z"/>
<path class="st0" d="M489,191.3c0,0-2.2-26.2,17.3-34.6c19.5-8.4,44.1,11.2,44.1,11.2L489,191.3z"/>
<path class="st0" d="M415.2,219.6c0,0-2.3-26.2,17.3-34.6s44.1,11.2,44.1,11.2L415.2,219.6z"/>
<polygon class="st1" points="492.4,432.9 462.5,436.7 457.3,420.3 486,415.3 "/>
<polygon class="st1" points="434.9,440.5 408.6,443.9 404.1,429.5 429.3,425.1 "/>
<polygon class="st1" points="377.8,446.3 356.4,449 352.7,437.3 373.2,433.8 "/>
<polygon class="st1" points="335.2,451.9 316.5,454.3 313.3,444 331.2,440.9 "/>
<polygon class="st1" points="295,456.9 278.6,459 275.8,450 291.5,447.3 "/>
<polygon class="st1" points="262.8,461.6 248.1,463.4 245.6,455.4 259.6,453 "/>
<polygon class="st1" points="234.7,465.3 221.9,466.9 219.7,459.9 231.9,457.8 "/>
<polygon class="st1" points="206.8,468.1 196.4,469.4 194.6,463.7 204.6,462 "/>
<polygon class="st1" points="186,470.9 176.9,472 175.3,467 184.1,465.5 "/>
<polygon class="st1" points="166.4,473.3 158.4,474.3 157,469.9 164.7,468.6 "/>
<polygon class="st1" points="147.3,476.6 138.8,477.6 137.3,473 145.5,471.6 "/>
<polygon class="st1" points="130.9,478.7 123.4,479.7 122.2,475.6 129.3,474.4 "/>
<polygon class="st1" points="114.7,480.4 108.6,481.2 107.6,477.8 113.4,476.8 "/>
<polygon class="st1" points="102.6,482 97.3,482.7 96.3,479.7 101.4,478.8 "/>
<polygon class="st1" points="91.2,483.4 86.5,484 85.7,481.4 90.1,480.7 "/>
<polyline class="st1" points="524.5,427.1 519.1,409.8 711.7,377.9 692,403.4 "/>
</svg>
