<?xml version='1.0' encoding='utf-8'?>
<svg xmlns:xlink="http://www.w3.org/1999/xlink" xmlns="http://www.w3.org/2000/svg" viewBox="0 0 800 800"><defs><linearGradient id="a"><stop style="stop-color:#000;stop-opacity:1" offset="0"/></linearGradient><linearGradient xlink:href="#a" id="b" x1="393.88" y1="397.218" x2="149.804" y2="641.295" gradientUnits="userSpaceOnUse"/><mask maskUnits="userSpaceOnUse" id="d"><circle cx="400" cy="400" r="400" style="fill:#fff"/></mask><mask maskUnits="userSpaceOnUse" id="c"><circle cx="400" cy="400" r="400" style="fill:#fff"/></mask></defs><circle cx="400" cy="400" r="400" style="fill:#1c8adb"/><path style="color:#000;display:inline;fill:url(#b);stroke-width:12;-inkscape-stroke:none;fill-opacity:1;opacity:.42" d="M392.654 208.969c-2.47 0-4.587 1.381-5.687 3.402l-30.338 29.996h-7.3a6.481 6.481 0 0 0-5.794 3.547l-45.844 45.602c-1.629.516-2.937 1.648-3.726 3.132L19.48 569.132c40.732 120.449 119.987 193.812 240.828 216.35l226.01-226.015c2.04-1.64 3.73-3.73 4.856-6.21.089-.195.175-.396.258-.597l49.746-121.47.65-1.586c1.625-3.967.065-8.248-3.47-10.26a8.651 8.651 0 0 0-1.67-.729l-40.202-12.742 10.36-9.307V297.676c0-3.601-2.9-6.5-6.5-6.5h-43.174v-42.308c0-3.602-2.9-6.5-6.5-6.5h-36.826v-26.899c0-3.112-2.165-5.7-5.077-6.346z" mask="url(#c)"/><g style="display:inline" mask="url(#d)"><path style="color:#000;fill:#fff;stroke-width:8.92467;-inkscape-stroke:none" d="M395.538 123.45a31.831 31.831 0 0 0-5.151 1.161l-92.045 29.175c-3.482 1.104-5.207 4.792-3.823 8.173L332 253.479a12.647 12.647 0 0 0 11.728 7.871h112.544c5.157 0 9.773-3.098 11.728-7.871l37.48-91.52c1.385-3.38-.34-7.069-3.822-8.173l-92.045-29.175a31.831 31.831 0 0 0-5.15-1.16v91.739a3.663 3.663 0 0 1-3.671 3.67h-1.584a3.663 3.663 0 0 1-3.67-3.67z" transform="matrix(1.34459 0 0 1.34459 -137.835 211.836)"/><path style="fill:#fff;stroke-width:1.34459" d="M392.654 208.969a6.486 6.486 0 0 0-6.5 6.5v26.898h-36.826a6.486 6.486 0 0 0-6.5 6.5v42.309h-43.174a6.486 6.486 0 0 0-6.5 6.5v98.89l90.293-28.619a54.775 54.775 0 0 1 33.106 0l90.293 28.62v-98.891c0-3.601-2.9-6.5-6.5-6.5h-43.174v-42.309c0-3.6-2.9-6.5-6.5-6.5h-36.826V215.47c0-3.601-2.9-6.5-6.5-6.5zm-66.58 103.851h19.889a6.038 6.038 0 0 1 6.05 6.051v18.205a6.038 6.038 0 0 1-6.05 6.05h-19.889a6.038 6.038 0 0 1-6.05-6.05v-18.205a6.038 6.038 0 0 1 6.05-6.05zm63.98 0h19.891a6.038 6.038 0 0 1 6.051 6.051v18.205a6.038 6.038 0 0 1-6.05 6.05h-19.891a6.038 6.038 0 0 1-6.051-6.05v-18.205a6.038 6.038 0 0 1 6.05-6.05zm63.983 0h19.889a6.038 6.038 0 0 1 6.05 6.051v18.205a6.038 6.038 0 0 1-6.05 6.05h-19.889a6.038 6.038 0 0 1-6.05-6.05v-18.205a6.038 6.038 0 0 1 6.05-6.05z"/></g></svg>